<mxfile host="app.diagrams.net" modified="2023-05-28T09:39:54.367Z" agent="Mozilla/5.0 (Macintosh; Intel Mac OS X 10_15_7) AppleWebKit/605.1.15 (KHTML, like Gecko) Version/15.6 Safari/605.1.15" version="21.3.5" etag="OfvGiaMhaTE3HQMa4PlA" type="github">
  <diagram name="Page-1" id="d6JsxiD6XvF5Bs98oeP-">
    <mxGraphModel>
      <root>
        <mxCell id="0" />
        <mxCell id="1" parent="0" />
      </root>
    </mxGraphModel>
  </diagram>
</mxfile>
